Coordinates
version=1
nRows=5
nColumns=40
inDegrees=yes

Units are S.I. units (second, meters, Newtons, ...)
Angles are in degrees.

endheader
time	pelvis_tilt	pelvis_list	pelvis_rotation	pelvis_tx	pelvis_ty	pelvis_tz	hip_flexion_r	hip_adduction_r	hip_rotation_r	knee_angle_r	knee_angle_r_beta	ankle_angle_r	subtalar_angle_r	mtp_angle_r	hip_flexion_l	hip_adduction_l	hip_rotation_l	knee_angle_l	knee_angle_l_beta	ankle_angle_l	subtalar_angle_l	mtp_angle_l	lumbar_extension	lumbar_bending	lumbar_rotation	arm_flex_r	arm_add_r	arm_rot_r	elbow_flex_r	pro_sup_r	wrist_flex_r	wrist_dev_r	arm_flex_l	arm_add_l	arm_rot_l	elbow_flex_l	pro_sup_l	wrist_flex_l	wrist_dev_l
     26.22242857	     -8.32314685	     -4.49401051	     -4.34330431	      0.79701961	      0.91635207	      0.45080655	     29.15634609	      1.05632392	    -11.28173011	     12.47582687	     12.47582687	      2.02405015	      2.97448275	      5.74084951	      7.48545034	     -6.75857614	     -8.60209922	     20.23845060	     20.23845060	     20.04731271	    -13.81299866	      2.66086041	    -11.05424340	      6.66770231	      1.14380130	     -6.20386514	    -11.58476814	     -1.51988967	     23.62542701	     46.77507358	      0.00000000	      0.00000000	     11.07137571	    -17.91471707	     -8.70471119	     76.24453430	     47.21349665	      0.00000000	      0.00000000
     26.23485714	     -8.30842353	     -4.44209762	     -4.27022419	      0.80000761	      0.91511836	      0.45336930	     28.94545357	      1.14989688	    -11.50551700	     12.76435040	     12.76435040	      1.86114622	      2.79297535	      5.55354249	      6.94768618	     -6.85988069	     -8.45032152	     20.49287404	     20.49287404	     20.35347503	    -13.92500169	      2.63238941	    -10.84576264	      6.58099071	      1.02836868	     -7.22461987	    -11.50223665	     -1.54959560	     23.43754662	     46.77391852	      0.00000000	      0.00000000	     10.48841008	    -17.77403479	     -8.68178137	     76.00982990	     47.20710053	      0.00000000	      0.00000000
     26.24728571	     -8.27583750	     -4.32493791	     -4.18031226	      0.80298565	      0.91378760	      0.45600526	     28.75529908	      1.17372133	    -11.44388605	     13.23635382	     13.23635382	      0.05614829	      1.72682183	      0.36971762	      6.68769455	     -6.92760720	     -8.20573460	     21.33315208	     21.33315208	     21.24987537	    -13.99500006	      3.96710381	    -10.68846081	      6.47999800	      1.58348818	     -9.41560391	    -11.53036375	     -2.04999074	     25.89823113	     46.65393791	      0.00000000	      0.00000000	     10.81285461	    -17.07922515	     -8.46016711	     74.70984884	     47.23005065	      0.00000000	      0.00000000
     26.25971429	     -8.24305647	     -4.32397787	     -4.07797475	      0.80588328	      0.91280368	      0.45878570	     28.76890379	      1.21358154	    -11.48311341	     14.40147645	     14.40147645	     -0.06558953	      1.07192689	     -0.30495321	      6.50512720	     -7.17086577	     -8.00127330	     22.25224617	     22.25224617	     21.39910612	    -14.30120534	      3.76426278	    -10.54338099	      6.48506371	      1.49390948	    -10.08618059	    -11.50420366	     -2.07176366	     25.77361569	     46.65024655	      0.00000000	      0.00000000	     10.19039315	    -16.85550298	     -8.32606484	     74.33377052	     47.21923568	      0.00000000	      0.00000000
     26.27214286	     -8.17590376	     -4.31832460	     -3.95118230	      0.80868742	      0.91202364	      0.46164408	     28.79854326	      1.23280698	    -11.39069316	     15.76035161	     15.76035161	     -0.15349858	      0.19296705	     -1.21316131	      6.54330140	     -7.44929007	     -7.74817079	     23.60403223	     23.60403223	     21.38671632	    -14.76530991	      3.52606606	    -10.45055802	      6.49478263	      1.41446771	    -10.64356977	    -11.44742646	     -2.10713921	     25.82012313	     46.64075446	      0.00000000	      0.00000000	      9.60365982	    -16.53208824	     -8.31875109	     73.65673484	     47.21192910	      0.00000000	      0.00000000
